<svg xmlns="http://www.w3.org/2000/svg" xmlns:xlink="http://www.w3.org/1999/xlink" width="100%" height="100%" viewBox="0 0 500 640.046" x="0px" y="0px" width="100" height="100" viewBox="0 0 100 100">
  <defs>
    <filter id="Path_537" x="304" y="0" width="197" height="197" filterUnits="userSpaceOnUse">
      <feOffset dy="3" input="SourceAlpha"/>
      <feGaussianBlur stdDeviation="3" result="blur"/>
      <feFlood flood-opacity="0.161"/>
      <feComposite operator="in" in2="blur"/>
      <feComposite in="SourceGraphic"/>
    </filter>
    <filter id="Path_249" x="304.332" y="443.412" width="196.634" height="196.634" filterUnits="userSpaceOnUse">
      <feOffset dy="3" input="SourceAlpha"/>
      <feGaussianBlur stdDeviation="3" result="blur-2"/>
      <feFlood flood-opacity="0.161"/>
      <feComposite operator="in" in2="blur-2"/>
      <feComposite in="SourceGraphic"/>
    </filter>
    <filter id="Path_538" x="601" y="221" width="197" height="197" filterUnits="userSpaceOnUse">
      <feOffset dy="3" input="SourceAlpha"/>
      <feGaussianBlur stdDeviation="3" result="blur-3"/>
      <feFlood flood-opacity="0.161"/>
      <feComposite operator="in" in2="blur-3"/>
      <feComposite in="SourceGraphic"/>
    </filter>
    <filter id="Path_641" x="0" y="221" width="197" height="197" filterUnits="userSpaceOnUse">
      <feOffset dy="3" input="SourceAlpha"/>
      <feGaussianBlur stdDeviation="3" result="blur-4"/>
      <feFlood flood-opacity="0.161"/>
      <feComposite operator="in" in2="blur-4"/>
      <feComposite in="SourceGraphic"/>
    </filter>
    <filter id="Rectangle_15" x="304" y="221" width="197" height="197" filterUnits="userSpaceOnUse">
      <feOffset dy="3" input="SourceAlpha"/>
      <feGaussianBlur stdDeviation="3" result="blur-5"/>
      <feFlood flood-opacity="0.161"/>
      <feComposite operator="in" in2="blur-5"/>
      <feComposite in="SourceGraphic"/>
    </filter>
  </defs>
  <g id="Group_1835" data-name="Group 1835" transform="translate(-206 -1037)">
    <g id="Group_104" data-name="Group 104" transform="translate(233 -1942.878)">
      <path id="Path_536" data-name="Path 536" d="M0,.087s237.212-11,296.371,214.765C327.429,333.376,259.7,415.711,184.458,460.363,116.676,500.588,36.385,514.733,0,510.128" transform="translate(375.518 3580.104) rotate(180)" fill="none" stroke="#68cde7" stroke-width="7" stroke-dasharray="30"/>
      <path id="Path_248" data-name="Path 248" d="M10894.5,3084s229.477-5.194,288.637,220.568c31.057,118.525-28.938,195.057-104.179,239.709-67.782,40.225-148.073,54.37-184.458,49.765" transform="translate(-10518.852 -14.847)" fill="none" stroke="#68cde7" stroke-width="7" stroke-dasharray="30"/>
      <g id="Group_38" data-name="Group 38" transform="translate(286.332 2985.878)">
        <g transform="matrix(1, 0, 0, 1, -313.33, -6)" filter="url(#Path_537)">
          <path id="Path_537-2" data-name="Path 537" d="M20,0H159a20,20,0,0,1,20,20V159a20,20,0,0,1-20,20H20A20,20,0,0,1,0,159V20A20,20,0,0,1,20,0Z" transform="translate(313 6)" fill="#68cde7"/>
        </g>
        <g id="Group_37" data-name="Group 37" transform="translate(64.566 15.941)">
          <text id="PieShares_Sign_Up_Nonprofits" data-name="PieShares 
Sign Up 
Nonprofits" transform="translate(29.102 85.059)" fill="#fff" font-size="20" font-family="Nunito-Regular, Nunito"><tspan x="-47.27" y="0">PieShares </tspan><tspan x="-38.25" y="27">Sign Up </tspan><tspan x="-47.2" y="54">Nonprofits</tspan></text>
        </g>
      </g>
      <g id="Group_40" data-name="Group 40" transform="translate(286.332 3429.29)">
        <g transform="matrix(1, 0, 0, 1, -313.33, -449.41)" filter="url(#Path_249)">
          <path id="Path_249-2" data-name="Path 249" d="M14.348,0H164.286a14.348,14.348,0,0,1,14.348,14.348V164.286a14.348,14.348,0,0,1-14.348,14.348H14.348A14.348,14.348,0,0,1,0,164.286V14.348A14.348,14.348,0,0,1,14.348,0Z" transform="translate(313.33 449.41)" fill="#84c549"/>
        </g>
        <g id="Group_37-2" data-name="Group 37" transform="translate(75.114 27.14)">
          <text id="Nonprofits_Sign_Up_Engage_Shoppers" data-name="Nonprofits 
Sign Up &amp; Engage
Shoppers" transform="translate(14.648 82.428)" fill="#fff" font-size="20" font-family="Nunito-Regular, Nunito"><tspan x="-49.78" y="0">Nonprofits </tspan><tspan x="-81.26" y="27">Sign Up &amp; Engage</tspan><tspan x="-42.59" y="54">Shoppers</tspan></text>
        </g>
      </g>
      <g id="Group_41" data-name="Group 41" transform="translate(583.466 3206.93)">
        <g transform="matrix(1, 0, 0, 1, -610.47, -227.05)" filter="url(#Path_538)">
          <path id="Path_538-2" data-name="Path 538" d="M20,0H159a20,20,0,0,1,20,20V159a20,20,0,0,1-20,20H20A20,20,0,0,1,0,159V20A20,20,0,0,1,20,0Z" transform="translate(610 227)" fill="#f8aa72"/>
        </g>
        <g id="Group_37-3" data-name="Group 37" transform="translate(62.385 25.513)">
          <text id="Nonprofits_Sign_Up_Businesses" data-name="Nonprofits
Sign Up
Businesses" transform="translate(31.148 81.435)" fill="#fff" font-size="20" font-family="Nunito-Regular, Nunito"><tspan x="-47.2" y="0">Nonprofits</tspan><tspan x="-35.67" y="27">Sign Up</tspan><tspan x="-50.09" y="54">Businesses</tspan></text>
        </g>
      </g>
      <g id="Group_1779" data-name="Group 1779" transform="translate(-18 3206.93)">
        <g transform="matrix(1, 0, 0, 1, -9, -227.05)" filter="url(#Path_641)">
          <path id="Path_641-2" data-name="Path 641" d="M20,0H159a20,20,0,0,1,20,20V159a20,20,0,0,1-20,20H20A20,20,0,0,1,0,159V20A20,20,0,0,1,20,0Z" transform="translate(9 227)" fill="#e48cba"/>
        </g>
        <g id="Group_37-4" data-name="Group 37" transform="translate(62.385 15.513)">
          <text id="Shoppers_Purchase_PieCredits" data-name="Shoppers
Purchase
PieCredits" transform="translate(29.615 93.435)" fill="#fff" font-size="20" font-family="Nunito-Regular, Nunito"><tspan x="-42.59" y="0">Shoppers</tspan><tspan x="-41.27" y="27">Purchase</tspan><tspan x="-45.93" y="54">PieCredits</tspan></text>
        </g>
      </g>
      <g id="Group_1780" data-name="Group 1780" transform="translate(286.332 3206.929)">
        <g transform="matrix(1, 0, 0, 1, -313.33, -227.05)" filter="url(#Rectangle_15)">
          <rect id="Rectangle_15-2" data-name="Rectangle 15" width="179" height="179" rx="20" transform="translate(313 227)" fill="#fee462"/>
        </g>
        <g id="Group_37-5" data-name="Group 37" transform="translate(62.385 15.513)">
          <text id="Everyone_Earns_Share_of_the_Pie" data-name="Everyone 
Earns Share
of the Pie" transform="translate(30.283 95.435)" fill="#58585a" font-size="20" font-family="Nunito-Regular, Nunito"><tspan x="-44.16" y="0">Everyone </tspan><tspan x="-53.56" y="27">Earns Share</tspan><tspan x="-42.37" y="54">of the Pie</tspan></text>
          <g id="XMLID_2_" transform="translate(-11.717 -0.565)">
            <path id="XMLID_56_" d="M23.8,57.6l7.986-.4c3.394-.133,6.788-.333,10.182-.466,2.4-.133,4.858-.2,7.32-.333,0,1.264.067,2.529,0,3.727a32.054,32.054,0,0,1-2.662,10.847A32.589,32.589,0,0,1,40.5,80.157a.919.919,0,0,1-.266.2A26,26,0,0,1,23.8,57.6Z" transform="translate(-9.892 -20.41)" fill="#f6d119"/>
            <path id="XMLID_55_" d="M66.633,11.756c-.133-3.128-.2-6.255-.333-9.383,16.038-1,32.408,11.779,32.807,29.48-3.128.067-6.255.2-9.317.266a25.65,25.65,0,0,0-6.322-12.111A26.269,26.269,0,0,0,66.633,11.756Z" transform="translate(-24.11 -2.318)" fill="#6bcce5"/>
            <path id="XMLID_54_" d="M17.806,31.588A29.926,29.926,0,0,1,2.9,13.953c1-.333,1.863-.6,2.795-.932,8.984-2.795,17.968-5.59,26.885-8.451.532-.133.665-.067.865.466.865,2.795,1.73,5.59,2.6,8.318a26.626,26.626,0,0,0-10.847,5.923,23.658,23.658,0,0,0-5.457,7.12C19,28.128,18.472,29.858,17.806,31.588Z" transform="translate(-2.9 -3.052)" fill="#f8a772"/>
            <path id="XMLID_53_" d="M65.6,82.22c.067-2,.2-3.993.266-5.989.133-2,.2-3.993.333-5.923l.6-10.98c.067-.932.067-1.863.133-2.928,1.4.2,2.662.266,3.926.466a31.984,31.984,0,0,1,16.969,8.651c.133.133.2.266.333.4C83.834,75.7,76.314,81.155,65.6,82.22Z" transform="translate(-23.875 -20.41)" fill="#f6d019"/>
            <path id="XMLID_52_" d="M65.433,86.97c10.714-1.065,18.234-6.522,22.626-16.37a27.735,27.735,0,0,1,5.191,6.921,28.64,28.64,0,0,1,3.46,10.647c.2,1.73.2,3.46.266,5.324-10.647-.6-21.228-1.131-31.876-1.73C65.3,90.165,65.366,88.568,65.433,86.97Z" transform="translate(-23.708 -25.161)" fill="#e28cb7"/>
            <path id="XMLID_51_" d="M25.3,36.067c.665-1.73,1.2-3.46,2-5.124a24.783,24.783,0,0,1,5.457-7.12A25.156,25.156,0,0,1,43.6,17.9c.8,2.462,1.6,4.991,2.4,7.453,1.331,4.259,2.662,8.451,3.993,12.843a37.655,37.655,0,0,1-3.727.865,32.67,32.67,0,0,1-8.451.532A30.7,30.7,0,0,1,25.3,36.067Z" transform="translate(-10.394 -7.531)" fill="#f7d119"/>
            <path id="XMLID_50_" d="M66.8,16.5a25.723,25.723,0,0,1,16.77,8.318A25.346,25.346,0,0,1,89.892,36.93l-4.525.2-13.442.4c-1.264.067-2.6.067-3.86.133h-.6c-.067-1.331-.133-2.6-.133-3.926-.2-5.59-.4-11.113-.532-16.7Z" transform="translate(-24.277 -7.062)" fill="#f6d119"/>
            <path id="XMLID_49_" d="M21.224,58.2a26.225,26.225,0,0,0,16.5,22.825A29.72,29.72,0,0,1,17.5,90.209c-.466-10.581-.932-21.162-1.4-31.809C17.83,58.333,19.56,58.267,21.224,58.2Z" transform="translate(-7.316 -21.012)" fill="#86c448"/>
            <text id="XMLID_7_" transform="translate(77.263 66.672)" fill="#58595b" font-size="1" font-family="SegoeUI, Segoe UI"><tspan x="0" y="0">TM</tspan></text>
          </g>
        </g>
      </g>
      <g id="register" transform="translate(347 2994.878)">
        <path id="Path_539" data-name="Path 539" d="M45.673,3H8.814A8.839,8.839,0,0,0,0,11.873V52.207A8.839,8.839,0,0,0,8.814,61.08H29.936a28.331,28.331,0,0,1-2.692-12.1l.032-.807H12.019a2.42,2.42,0,0,1,0-4.84h15.8a27.533,27.533,0,0,1,1.763-5.647H12.019a2.42,2.42,0,0,1,0-4.84H32.308a28.673,28.673,0,0,1,5.16-5.647H12.019a2.42,2.42,0,0,1,0-4.84H42.468a2.339,2.339,0,0,1,1.7.71,27.56,27.56,0,0,1,10.321-2.291V11.873A8.839,8.839,0,0,0,45.673,3Z" transform="translate(0 6.615)" fill="#2196f3"/>
        <path id="Path_540" data-name="Path 540" d="M30.442,6.41H26.917a8.832,8.832,0,0,0-16.987,0H6.4A2.421,2.421,0,0,0,4,8.814v6.41a5.636,5.636,0,0,0,5.609,5.609H27.237a5.636,5.636,0,0,0,5.609-5.609V8.814A2.421,2.421,0,0,0,30.442,6.41Z" transform="translate(8.123)" fill="#1976d2"/>
        <g id="Group_1781" data-name="Group 1781" transform="translate(9.615 29.064)">
          <path id="Path_541" data-name="Path 541" d="M37.551,9.705a28.151,28.151,0,0,0-6.7,4.1H5.4A2.4,2.4,0,0,1,5.4,9H35.853A2.347,2.347,0,0,1,37.551,9.705Z" transform="translate(-3 -9)" fill="#fff"/>
          <path id="Path_542" data-name="Path 542" d="M25.692,12.25a27.31,27.31,0,0,0-2.724,4.808H5.4a2.4,2.4,0,1,1,0-4.808Z" transform="translate(-3 -1.833)" fill="#fff"/>
          <path id="Path_543" data-name="Path 543" d="M21.205,15.5a26.611,26.611,0,0,0-.545,4.808H5.4a2.4,2.4,0,1,1,0-4.808Z" transform="translate(-3 5.333)" fill="#fff"/>
        </g>
        <path id="Path_544" data-name="Path 544" d="M12.821,3H8.814A8.839,8.839,0,0,0,0,11.873V52.207A8.839,8.839,0,0,0,8.814,61.08H26.891V48.173H12.019a2.42,2.42,0,0,1,0-4.84H26.891V37.687H12.019a2.42,2.42,0,0,1,0-4.84H26.891V27.2H12.019a2.42,2.42,0,0,1,0-4.84H26.891V14.293H18.429a5.655,5.655,0,0,1-5.609-5.647Z" transform="translate(0 6.615)" fill="#1d83d4"/>
        <path id="Path_545" data-name="Path 545" d="M18.071,0a8.86,8.86,0,0,0-8.141,6.4H6.4A2.421,2.421,0,0,0,4,8.81v6.41a5.636,5.636,0,0,0,5.609,5.609h8.462Z" transform="translate(8.287 0.004)" fill="#1667b7"/>
        <path id="Path_546" data-name="Path 546" d="M20.276,9H5.4a2.4,2.4,0,0,0,0,4.808H20.276Z" transform="translate(6.615 20.001)" fill="#dedede"/>
        <path id="Path_547" data-name="Path 547" d="M20.276,12.25H5.4a2.4,2.4,0,0,0,0,4.808H20.276Z" transform="translate(6.615 27.224)" fill="#dedede"/>
        <path id="Path_548" data-name="Path 548" d="M20.276,15.5H5.4a2.4,2.4,0,0,0,0,4.808H20.276Z" transform="translate(6.615 34.446)" fill="#dedede"/>
        <path id="Path_549" data-name="Path 549" d="M32.135,53.769A21.635,21.635,0,1,1,53.769,32.135,21.657,21.657,0,0,1,32.135,53.769Z" transform="translate(20.54 23.541)" fill="#318034"/>
        <path id="Path_550" data-name="Path 550" d="M19.455,37.538a3.2,3.2,0,0,1-3.205-3.205V16.705a3.205,3.205,0,0,1,6.41,0V34.333A3.2,3.2,0,0,1,19.455,37.538Z" transform="translate(33.903 30.157)" fill="#fff"/>
        <path id="Path_551" data-name="Path 551" d="M34.333,22.66H16.705a3.205,3.205,0,0,1,0-6.41H34.333a3.205,3.205,0,0,1,0,6.41Z" transform="translate(27.155 36.12)" fill="#fff"/>
        <path id="Path_552" data-name="Path 552" d="M32.135,10.5a21.635,21.635,0,0,0,0,43.269V44.154a3.2,3.2,0,0,1-3.205-3.205V35.34H23.321a3.205,3.205,0,0,1,0-6.41h5.609V23.321a3.2,3.2,0,0,1,3.205-3.205Z" transform="translate(21.563 23.541)" fill="#2b682e"/>
        <path id="Path_553" data-name="Path 553" d="M19.455,28.724H16.25v5.609a3.2,3.2,0,0,0,3.205,3.205Zm0-15.224a3.2,3.2,0,0,0-3.205,3.205v5.609h3.205Z" transform="translate(33.987 30.157)" fill="#dedede"/>
        <path id="Path_554" data-name="Path 554" d="M25.519,16.25H16.705a3.205,3.205,0,0,0,0,6.41h8.814Z" transform="translate(28.027 36.12)" fill="#dedede"/>
      </g>
    </g>
    <g id="non-register" transform="translate(871.032 1278.032)">
      <path id="Path_555" data-name="Path 555" d="M203.382,199.143c0,4.9-6.76,9.787-9.052,11.3a1.357,1.357,0,0,1-1.5,0c-2.292-1.517-9.052-6.4-9.052-11.3,0-5.864,6.535-8.086,9.8-3.119C196.847,191.057,203.382,193.279,203.382,199.143Z" transform="translate(-158.836 -167.049)" fill="#eb8b7f" stroke="#707070" stroke-width="1"/>
      <path id="Path_556" data-name="Path 556" d="M265.8,199.143c0,4.9-6.76,9.787-9.053,11.3a1.358,1.358,0,0,1-.749.227V196.024C259.267,191.057,265.8,193.28,265.8,199.143Z" transform="translate(-221.256 -167.049)" fill="#f47160" stroke="#707070" stroke-width="1"/>
      <path id="Path_557" data-name="Path 557" d="M107.691,303.17a9.752,9.752,0,0,0-8.533,6.611l-8.868,1.564A4.052,4.052,0,0,0,87,316.037l.008.041a4.051,4.051,0,0,0,4.693,3.286l8.1-1.424a2.009,2.009,0,1,1,.649,3.966l-10.323,1.562L73.4,314.8a7.953,7.953,0,0,0-9.983,2.3,1.354,1.354,0,0,0,.48,2.015l21.936,11.128a11.53,11.53,0,0,0,6.781,1.141l16.253-2.9h7.642V306.852l-.856-.469A9.737,9.737,0,0,0,107.691,303.17Z" transform="translate(-54.58 -262.001)" fill="#ffddce" stroke="#707070" stroke-width="1"/>
      <path id="Path_558" data-name="Path 558" d="M283.186,306.856v21.628h-7.642l-16.254,2.9a11.515,11.515,0,0,1-3.29-.023v-8.307l.8.415,10.323-1.562a2.009,2.009,0,1,0-.649-3.966l-8.1,1.425a4.027,4.027,0,0,1-2.381-.3v-7.418a4,4,0,0,1,.966-.3l8.868-1.563a9.749,9.749,0,0,1,16.5-3.4Z" transform="translate(-221.256 -262.005)" fill="#ffccbd" stroke="#707070" stroke-width="1"/>
      <path id="Path_559" data-name="Path 559" d="M457.058,327.005H450v23.75a1.357,1.357,0,0,0,1.357,1.357h5.7a1.357,1.357,0,0,0,1.357-1.357V328.362A1.357,1.357,0,0,0,457.058,327.005Z" transform="translate(-388.926 -282.624)" fill="#495959" stroke="#707070" stroke-width="1"/>
      <path id="Path_560" data-name="Path 560" d="M64.511,28.32a9.752,9.752,0,0,0,8.533-6.611l8.868-1.564A4.052,4.052,0,0,0,85.2,15.453l-.008-.041A4.051,4.051,0,0,0,80.5,12.126L72.4,13.55a2.009,2.009,0,1,1-.649-3.966L82.076,8.023,98.8,16.686a7.953,7.953,0,0,0,9.983-2.3,1.354,1.354,0,0,0-.48-2.015L86.369,1.248A11.531,11.531,0,0,0,79.588.107l-16.253,2.9H56.548l-.856.543V24.639l.856.469A9.737,9.737,0,0,0,64.511,28.32Z" transform="translate(-48.133 0)" fill="#ffddce" stroke="#707070" stroke-width="1"/>
      <path id="Path_561" data-name="Path 561" d="M258.321,94.594A4.05,4.05,0,0,1,256,98.988V91.57a4.039,4.039,0,0,1,2.313,2.983Z" transform="translate(-221.256 -79.142)" fill="#ffccbd" stroke="#707070" stroke-width="1"/>
      <path id="Path_562" data-name="Path 562" d="M281.426,13.2a1.354,1.354,0,0,1,.48,2.015,7.952,7.952,0,0,1-9.983,2.3L256,9.267V.96a11.457,11.457,0,0,1,3.491,1.117Z" transform="translate(-221.256 -0.83)" fill="#ffccbd" stroke="#707070" stroke-width="1"/>
      <path id="Path_563" data-name="Path 563" d="M1.357,22.185H8.415V46.147A1.357,1.357,0,0,1,7.057,47.5h-5.7A1.357,1.357,0,0,1,0,46.147v-22.6A1.357,1.357,0,0,1,1.357,22.185Z" transform="translate(0 -19.174)" fill="#55696e" stroke="#707070" stroke-width="1"/>
    </g>
    <g id="non-engagement" transform="translate(575 1496.864)">
      <g id="Group_1794" data-name="Group 1794" transform="translate(2.293 2.293)">
        <g id="Group_1782" data-name="Group 1782" transform="translate(2.586 38.794)">
          <path id="Path_564" data-name="Path 564" d="M29.863,63.035v6a1.763,1.763,0,0,1-3.116,1.125l-5.935-7.125H6.586A2.594,2.594,0,0,1,4,60.449V34.586A2.594,2.594,0,0,1,6.586,32H19.944l1.629,1.953a1.763,1.763,0,0,0,3.116-1.125V32H35.035v2.586a2.594,2.594,0,0,0,2.586,2.586H47.966V60.449a2.594,2.594,0,0,1-2.586,2.586Z" transform="translate(-4 -32)" fill="#e6e9ed"/>
        </g>
        <g id="Group_1783" data-name="Group 1783" transform="translate(33.621 10.345)">
          <path id="Path_565" data-name="Path 565" d="M30.586,33.276a2.594,2.594,0,0,0,2.586-2.586V10H69.38a2.594,2.594,0,0,1,2.586,2.586V41.035a2.594,2.594,0,0,1-2.586,2.586H55.156L49.22,50.747A1.763,1.763,0,0,1,46.1,49.621v-6H30.586A2.594,2.594,0,0,1,28,41.035V33.276Z" transform="translate(-28 -10)" fill="#ffeaa7"/>
        </g>
        <g id="Group_1784" data-name="Group 1784">
          <path id="Path_566" data-name="Path 566" d="M40.794,12.345v20.69a2.594,2.594,0,0,1-2.586,2.586H25.276v6a1.763,1.763,0,0,1-3.116,1.125l-1.629-1.953-4.306-5.173H4.586A2.594,2.594,0,0,1,2,33.035V4.586A2.594,2.594,0,0,1,4.586,2H38.208a2.594,2.594,0,0,1,2.586,2.586Z" transform="translate(-2 -2)" fill="#f0d0b4"/>
        </g>
        <g id="Group_1785" data-name="Group 1785" transform="translate(7.759 56.898)">
          <path id="Path_567" data-name="Path 567" d="M18.384,47.332a7.157,7.157,0,0,0-.75,2.509l-.582,5.211H8V52.466A6.468,6.468,0,0,1,14.466,46a6.371,6.371,0,0,1,3.918,1.332Z" transform="translate(-8 -46)" fill="#b4dd7f"/>
        </g>
        <g id="Group_1786" data-name="Group 1786" transform="translate(30.996 56.898)">
          <path id="Path_568" data-name="Path 568" d="M36.354,52.466v2.586H27.3l-.582-5.211a7.157,7.157,0,0,0-.75-2.509A6.371,6.371,0,0,1,29.888,46a6.446,6.446,0,0,1,6.466,6.466Z" transform="translate(-25.97 -46)" fill="#b4dd7f"/>
        </g>
        <g id="Group_1787" data-name="Group 1787" transform="translate(16.811 54.311)">
          <path id="Path_569" data-name="Path 569" d="M29.936,50.427l.582,5.211H15l.582-5.211A7.2,7.2,0,0,1,22.759,44a7.274,7.274,0,0,1,4.823,1.836,7.66,7.66,0,0,1,1.6,2.082A7.157,7.157,0,0,1,29.936,50.427Z" transform="translate(-15 -44)" fill="#fcd770"/>
        </g>
        <g id="Group_1788" data-name="Group 1788" transform="translate(30.787 47.485)">
          <ellipse id="Ellipse_63" data-name="Ellipse 63" cx="4" cy="5" rx="4" ry="5" transform="translate(-0.08 0.358)" fill="#f0d0b4"/>
        </g>
        <g id="Group_1789" data-name="Group 1789" transform="translate(21.473 46.45)">
          <ellipse id="Ellipse_64" data-name="Ellipse 64" cx="3.5" cy="4" rx="3.5" ry="4" transform="translate(0.234 0.393)" fill="#f0d0b4"/>
        </g>
        <g id="Group_1790" data-name="Group 1790" transform="translate(11.125 47.485)">
          <ellipse id="Ellipse_65" data-name="Ellipse 65" cx="4" cy="5" rx="4" ry="5" transform="translate(-0.418 0.358)" fill="#f0d0b4"/>
        </g>
        <g id="Group_1791" data-name="Group 1791" transform="translate(7.759 7.759)">
          <path id="Path_570" data-name="Path 570" d="M31.276,14.776v.207a7.529,7.529,0,0,1-2.509,5.6L19.638,28.69l-9.129-8.108A7.529,7.529,0,0,1,8,14.983v-.207a7.01,7.01,0,0,1,2.056-4.953,6.244,6.244,0,0,1,8.819,0l.763.763.763-.763a6.244,6.244,0,0,1,8.819,0A7.01,7.01,0,0,1,31.276,14.776Z" transform="translate(-8 -8)" fill="#ff826e"/>
        </g>
        <g id="Group_1792" data-name="Group 1792" transform="translate(43.966 23.276)">
          <path id="Path_571" data-name="Path 571" d="M43.759,32.931v1.293a1.3,1.3,0,0,1-1.293,1.293H37.293A1.3,1.3,0,0,1,36,34.224V21.293A1.3,1.3,0,0,1,37.293,20h5.173a1.3,1.3,0,0,1,1.293,1.293Z" transform="translate(-36 -20)" fill="#b4dd7f"/>
        </g>
        <g id="Group_1793" data-name="Group 1793" transform="translate(51.725 15.518)">
          <path id="Path_572" data-name="Path 572" d="M60.1,25.638V33.4a3.874,3.874,0,0,1-3.879,3.879H50.548A15.444,15.444,0,0,1,42,34.69V23.052l1.539-1.539a12.008,12.008,0,0,0,3.142-5.56A2.575,2.575,0,0,1,49.19,14,3.762,3.762,0,0,1,52.9,18.384l-.556,3.375h3.879A3.874,3.874,0,0,1,60.1,25.638Z" transform="translate(-42 -14)" fill="#f0d0b4"/>
        </g>
      </g>
      <g id="Group_1795" data-name="Group 1795" transform="translate(1 1)">
        <path id="Path_573" data-name="Path 573" d="M32.863,15.275v-.2a8.238,8.238,0,0,0-2.43-5.864,7.537,7.537,0,0,0-10.5-.153,7.537,7.537,0,0,0-10.5.153A8.238,8.238,0,0,0,7,15.072v.2a8.788,8.788,0,0,0,2.947,6.563l9.984,8.876,9.983-8.875a8.785,8.785,0,0,0,2.948-6.564ZM19.931,27.253l-8.266-7.348a6.2,6.2,0,0,1-2.079-4.631v-.2a5.669,5.669,0,0,1,1.672-4.036,4.951,4.951,0,0,1,7,0l1.672,1.672L21.6,11.036a5.073,5.073,0,0,1,7,0,5.669,5.669,0,0,1,1.672,4.036v.2A6.2,6.2,0,0,1,28.2,19.905Z" transform="translate(0.759 0.759)" fill="#58585a"/>
        <path id="Path_574" data-name="Path 574" d="M77.295,11.345H42.38V4.879A3.884,3.884,0,0,0,38.5,1H4.879A3.884,3.884,0,0,0,1,4.879V33.328a3.884,3.884,0,0,0,3.879,3.879H15.912l2.156,2.586H7.466a3.884,3.884,0,0,0-3.879,3.879V69.536a3.884,3.884,0,0,0,3.879,3.879H21.085l5.55,6.66a3.054,3.054,0,0,0,5.4-1.955v-4.7H46.26a3.884,3.884,0,0,0,3.879-3.879V47.553h2.586v4.7a3.054,3.054,0,0,0,5.4,1.955l5.55-6.66H77.295a3.884,3.884,0,0,0,3.879-3.879V15.224a3.884,3.884,0,0,0-3.879-3.879ZM17.123,34.621H4.879a1.294,1.294,0,0,1-1.293-1.293V4.879A1.294,1.294,0,0,1,4.879,3.586H38.5a1.294,1.294,0,0,1,1.293,1.293V33.328A1.294,1.294,0,0,1,38.5,34.621H24.276v7.291a.484.484,0,0,1-.828.3Zm17.5,2.586v2.586H26.863V37.208ZM47.553,69.536a1.294,1.294,0,0,1-1.293,1.293H29.449V78.12a.484.484,0,0,1-.828.3L22.3,70.829H7.466a1.294,1.294,0,0,1-1.293-1.293V43.673A1.294,1.294,0,0,1,7.466,42.38H20.222l1.24,1.487a3.045,3.045,0,0,0,5.352-1.487h7.807v1.293A3.884,3.884,0,0,0,38.5,47.553h9.052ZM78.588,43.673a1.294,1.294,0,0,1-1.293,1.293H62.465l-6.326,7.589a.485.485,0,0,1-.828-.3V44.966H38.5a1.294,1.294,0,0,1-1.293-1.293V37.208H38.5a3.884,3.884,0,0,0,3.879-3.879v-19.4H77.295a1.294,1.294,0,0,1,1.293,1.293Z" transform="translate(-1 -1)" fill="#58585a"/>
        <path id="Path_575" data-name="Path 575" d="M30.276,44.759a5.122,5.122,0,0,0,.478,2.143,8.532,8.532,0,0,0-1.849-1.25,5.173,5.173,0,1,0-7.6,0,8.532,8.532,0,0,0-1.849,1.25,5.122,5.122,0,0,0,.478-2.143,5.173,5.173,0,1,0-8.914,3.552A7.763,7.763,0,0,0,7,55.1V57.69H9.586V55.1a5.162,5.162,0,0,1,7.479-4.623,8.6,8.6,0,0,0-.427,1.854l-.579,5.211,2.569.286.579-5.211a5.932,5.932,0,0,1,11.791,0l.579,5.211,2.569-.286-.579-5.211a8.527,8.527,0,0,0-.427-1.854A5.162,5.162,0,0,1,40.621,55.1V57.69h2.586V55.1a7.763,7.763,0,0,0-4.018-6.793,5.167,5.167,0,1,0-8.914-3.552ZM14.759,47.345a2.586,2.586,0,1,1,2.586-2.586A2.589,2.589,0,0,1,14.759,47.345ZM25.1,44.759a2.586,2.586,0,1,1,2.586-2.586A2.589,2.589,0,0,1,25.1,44.759Zm12.931,0a2.586,2.586,0,1,1-2.586-2.586A2.589,2.589,0,0,1,38.035,44.759Z" transform="translate(0.759 9.553)" fill="#58585a"/>
        <path id="Path_576" data-name="Path 576" d="M58.276,20.759H55.923l.312-1.867A5.06,5.06,0,0,0,51.244,13a3.876,3.876,0,0,0-3.764,2.938,10.667,10.667,0,0,1-2.8,4.955l-.381.381a2.567,2.567,0,0,0-1.535-.516H37.586A2.589,2.589,0,0,0,35,23.345V36.276a2.589,2.589,0,0,0,2.586,2.586h5.173a2.581,2.581,0,0,0,2.432-1.741,16.623,16.623,0,0,0,7.4,1.741h5.683a5.178,5.178,0,0,0,5.173-5.173V25.931a5.178,5.178,0,0,0-5.173-5.173ZM37.586,36.276V23.345h5.173V36.276ZM60.863,33.69a2.589,2.589,0,0,1-2.586,2.586H52.593a14.051,14.051,0,0,1-7.248-2.015V23.88L46.5,22.722a13.256,13.256,0,0,0,3.486-6.157,1.291,1.291,0,0,1,1.254-.979,2.474,2.474,0,0,1,2.439,2.881l-.812,4.878h5.405a2.589,2.589,0,0,1,2.586,2.586Z" transform="translate(8.966 2.518)" fill="#58585a"/>
      </g>
    </g>
    <g id="Shopping_Bag-Hands-Bag-Purchase-Buy" data-name="Shopping Bag-Hands-Bag-Purchase-Buy" transform="translate(265.13 1271)">
      <path id="Path_577" data-name="Path 577" d="M50.322,33v2.666a2.674,2.674,0,0,1-2.666,2.666H23.666A2.674,2.674,0,0,1,21,35.666V33Z" transform="translate(6.367 10.318)" fill="#d1d3d4" stroke="#707070" stroke-width="1"/>
      <path id="Path_578" data-name="Path 578" d="M21,13H50.322V39.657H21Z" transform="translate(6.367 3.661)" fill="#3d9ae2" stroke="#707070" stroke-width="1"/>
      <path id="Path_579" data-name="Path 579" d="M56.716,49.029,70.271,44.1A4.156,4.156,0,0,1,75.5,46.136a4,4,0,0,1-2.279,5.4L48.852,60.4a16.006,16.006,0,0,1-6.571.933l-6.331-.44a15.994,15.994,0,0,0-6.571.92l-4.332,1.573L19.13,47.109l.586-.466A21.528,21.528,0,0,1,25.674,43.3l2.079-.746a18.613,18.613,0,0,1,9.623-.84l16.074,2.826a4.018,4.018,0,0,1,3.305,3.932A3.953,3.953,0,0,1,56.716,49.029Z" transform="translate(5.745 13.122)" fill="#ffc477" stroke="#707070" stroke-width="1"/>
      <path id="Path_580" data-name="Path 580" d="M45,33v2.666a2.674,2.674,0,0,1-2.666,2.666H39.666A2.674,2.674,0,0,1,37,35.666V33Z" transform="translate(11.693 10.318)" fill="#c6c5ca" stroke="#707070" stroke-width="1"/>
      <path id="Path_581" data-name="Path 581" d="M62.991,33v2.666a2.674,2.674,0,0,1-2.666,2.666H41.666A2.674,2.674,0,0,1,39,35.666V33Z" transform="translate(12.358 10.318)" fill="#e6e7e8" stroke="#707070" stroke-width="1"/>
      <path id="Path_582" data-name="Path 582" d="M39,20H62.991V37.327H39Z" transform="translate(12.358 5.991)" fill="#ff5023" stroke="#707070" stroke-width="1"/>
      <path id="Path_583" data-name="Path 583" d="M37,20h2.666V37.327H37Z" transform="translate(11.693 5.991)" fill="#1e81ce" stroke="#707070" stroke-width="1"/>
      <path id="Path_584" data-name="Path 584" d="M43.66,21.993H40.994V11.33a6.664,6.664,0,1,0-13.328,0V21.993H25V11.33a9.33,9.33,0,0,1,18.66,0Z" transform="translate(7.699)" fill="#1e81ce" stroke="#707070" stroke-width="1"/>
      <path id="Path_585" data-name="Path 585" d="M49.664,32.33A6.672,6.672,0,0,1,43,25.666V23h2.666v2.666a4,4,0,1,0,8,0V23h2.666v2.666A6.672,6.672,0,0,1,49.664,32.33Z" transform="translate(13.69 6.99)" fill="#d80027" stroke="#707070" stroke-width="1"/>
      <path id="Path_586" data-name="Path 586" d="M52.963,54.144a5.376,5.376,0,0,1-.933-.081L37.591,51.517l.464-2.626,14.439,2.546a2.666,2.666,0,1,0,.925-5.25L37.347,43.352a17.34,17.34,0,0,0-8.93.782l-2.07.753a19.933,19.933,0,0,0-5.59,3.127l-.592.469-1.661-2.1.59-.468a22.572,22.572,0,0,1,6.334-3.531l2.07-.754a20.017,20.017,0,0,1,10.309-.9l16.078,2.835a5.331,5.331,0,0,1-.925,10.583Z" transform="translate(5.537 12.791)" fill="#ffb655" stroke="#707070" stroke-width="1"/>
      <path id="Path_587" data-name="Path 587" d="M29.948,65.1l-4.465,1.626H13.514L7.623,50.527,7.17,49.275,22.191,43.81l.92,2.506L29.029,62.59Z" transform="translate(1.764 13.916)" fill="#3d9ae2" stroke="#707070" stroke-width="1"/>
      <path id="Path_588" data-name="Path 588" d="M15.278,65.044H6.762L1.87,51.582,9.387,48.85Z" transform="translate(0 15.593)" fill="#5aaae7" stroke="#707070" stroke-width="1"/>
    </g>
  </g>
</svg>
