<svg height="512" viewBox="0 0 512 512" width="512" xmlns="http://www.w3.org/2000/svg"><g id="flat"><path d="m270.11 214.866-38.11-22.866-96-96-80 72 64 72 8 56 16 16 144-80-16-16" fill="#f6bb92"/><path d="m368 96-112 136-48 8-48 24-41.6 41.6a21.192 21.192 0 0 0 -.587 29.36 24 24 0 0 0 32.676 2.424l41.511-33.384 15.207 33.13-27.107 39.61a16 16 0 0 0 4.167 22.241 16 16 0 0 0 22.24-4.167l-4.518 6.6a16 16 0 0 0 26.407 18.074 16 16 0 0 0 4.167 22.24 16 16 0 0 0 22.24-4.167l4.518-6.6a16 16 0 0 0 4.167 22.24 16 16 0 0 0 22.241-4.167l23.853-34.851 2.418 1.817 40-88v-40l104-120z" fill="#fdc9a6"/><path d="m305.041 104.559-49.041 49.041-49.041-49.041a23.758 23.758 0 0 1 -6.959-16.8 23.759 23.759 0 0 1 23.759-23.759 23.758 23.758 0 0 1 16.8 6.959l15.441 15.441 15.441-15.441a23.758 23.758 0 0 1 16.8-6.959 23.759 23.759 0 0 1 23.759 23.759 23.758 23.758 0 0 1 -6.959 16.8z" fill="#f16465"/><g fill="#f6bb92"><path d="m152 336 16 24 54.233 6.026a16 16 0 0 0 17.767-15.902v-2.449a24 24 0 0 0 -19.293-23.534l-20.707-4.141-8-16z"/><path d="m359.594 337.215-24.8-20.228a16 16 0 0 0 -22.512 2.283 16 16 0 0 0 2.284 22.512l6.2 5.057a16 16 0 1 0 -20.228 24.8 16 16 0 0 0 -22.512 2.284 16 16 0 0 0 2.283 22.511l-6.2-5.056a16 16 0 0 0 -20.229 24.795l24.8 20.228a16 16 0 0 0 20.229-24.8l6.2 5.057a16 16 0 0 0 22.512-2.284 16 16 0 0 0 -2.284-22.512 16 16 0 0 0 20.228-24.8l-6.2-5.057a16 16 0 0 0 22.512-2.283 16 16 0 0 0 -2.283-22.507z"/></g></g></svg>