<svg xmlns="http://www.w3.org/2000/svg" width="299.877" height="78.862" viewBox="0 0 299.877 78.862">
  <g id="pieshares_logo" data-name="pieshares logo" transform="translate(-2.9 -2.318)">
    <g id="XMLID_2_" transform="translate(2.9 2.318)">
      <path id="XMLID_56_" d="M23.8,57.676l8.5-.425c3.614-.142,7.229-.354,10.843-.5,2.551-.142,5.173-.213,7.8-.354,0,1.346.071,2.693,0,3.969A34.135,34.135,0,0,1,48.108,71.92a34.705,34.705,0,0,1-6.52,9.78.978.978,0,0,1-.283.213A27.685,27.685,0,0,1,23.8,57.676Z" transform="translate(-8.989 -18.073)" fill="#f6d119"/>
      <path id="XMLID_55_" d="M66.654,12.368c-.142-3.331-.213-6.662-.354-9.992,17.079-1.063,34.513,12.544,34.938,31.394-3.331.071-6.662.213-9.922.283a27.316,27.316,0,0,0-6.732-12.9A27.975,27.975,0,0,0,66.654,12.368Z" transform="translate(-21.37 -2.318)" fill="#6bcce5"/>
      <path id="XMLID_54_" d="M18.774,33.347A31.869,31.869,0,0,1,2.9,14.567c1.063-.354,1.984-.638,2.976-.992,9.567-2.976,19.134-5.953,28.631-9,.567-.142.709-.071.921.5.921,2.976,1.843,5.953,2.764,8.858a28.355,28.355,0,0,0-11.551,6.307,25.2,25.2,0,0,0-5.811,7.583C20.05,29.661,19.483,31.5,18.774,33.347Z" transform="translate(-2.9 -2.957)" fill="#f8a772"/>
      <path id="XMLID_53_" d="M65.6,83.9c.071-2.126.213-4.252.283-6.378.142-2.126.213-4.252.354-6.307l.638-11.693c.071-.992.071-1.984.142-3.118,1.488.213,2.835.283,4.181.5A34.061,34.061,0,0,1,89.27,66.109c.142.142.213.283.354.425C85.018,76.952,77.01,82.763,65.6,83.9Z" transform="translate(-21.166 -18.073)" fill="#f6d019"/>
      <path id="XMLID_52_" d="M65.454,88.033c11.41-1.134,19.418-6.945,24.1-17.433a29.535,29.535,0,0,1,5.528,7.37,30.5,30.5,0,0,1,3.685,11.339c.213,1.843.213,3.685.283,5.669-11.339-.638-22.607-1.2-33.946-1.843C65.313,91.435,65.383,89.734,65.454,88.033Z" transform="translate(-21.02 -22.21)" fill="#e28cb7"/>
      <path id="XMLID_51_" d="M25.3,37.247c.709-1.843,1.276-3.685,2.126-5.457a26.393,26.393,0,0,1,5.811-7.583A26.789,26.789,0,0,1,44.789,17.9c.85,2.622,1.7,5.315,2.551,7.937,1.417,4.536,2.835,9,4.252,13.677a40.1,40.1,0,0,1-3.969.921,34.792,34.792,0,0,1-9,.567A32.69,32.69,0,0,1,25.3,37.247Z" transform="translate(-9.426 -6.857)" fill="#f7d119"/>
      <path id="XMLID_50_" d="M66.8,16.5a27.393,27.393,0,0,1,17.859,8.858,26.991,26.991,0,0,1,6.732,12.9c-1.63.071-3.189.142-4.819.213l-14.315.425c-1.346.071-2.764.071-4.11.142h-.638c-.071-1.417-.142-2.764-.142-4.181-.213-5.953-.425-11.835-.567-17.788Z" transform="translate(-21.515 -6.449)" fill="#f6d119"/>
      <path id="XMLID_49_" d="M21.557,58.2A27.928,27.928,0,0,0,39.132,82.508a31.65,31.65,0,0,1-21.544,9.78c-.5-11.268-.992-22.536-1.488-33.875C17.943,58.342,19.785,58.271,21.557,58.2Z" transform="translate(-6.745 -18.598)" fill="#86c448"/>
      <text id="XMLID_7_" transform="translate(82.28 71.937)" fill="#58595b" font-size="2" font-family="SegoeUI, Segoe UI"><tspan x="0" y="0">TM</tspan></text>
    </g>
    <text id="XMLID_10_" transform="translate(95.777 65.179)" fill="#fff" font-size="45" font-family="Nunito-Bold, Nunito" font-weight="700"><tspan x="0" y="0">PieShares</tspan></text>
  </g>
</svg>
