<?xml version="1.0" encoding="utf-8"?>
<!-- Generator: Adobe Illustrator 19.0.0, SVG Export Plug-In . SVG Version: 6.00 Build 0)  -->
<svg version="1.1" id="Layer_1" xmlns="http://www.w3.org/2000/svg" xmlns:xlink="http://www.w3.org/1999/xlink" x="0px" y="0px"
	 viewBox="0 0 100 90" style="enable-background:new 0 0 100 90;" xml:space="preserve">
<style type="text/css">
	.st0{fill:#F6D119;}
	.st1{fill:#6BCCE5;}
	.st2{fill:#F8A772;}
	.st3{fill:#F6D019;}
	.st4{fill:#E28CB7;}
	.st5{fill:#F7D119;}
	.st6{fill:#86C448;}
	.st7{fill:#333333;}
	.st8{font-family:'Nunito-Regular';}
	.st9{font-size:1.5px;}
</style>
<g id="XMLID_1_">
	<path id="XMLID_56_" class="st0" d="M17.2,48.4c3.3-0.2,6.5-0.3,9.8-0.5c4.2-0.2,8.4-0.4,12.5-0.6c3-0.1,6-0.3,9-0.4
		c0,1.6,0.1,3.1,0,4.7c-0.3,4.7-1.4,9.3-3.3,13.7c-1.8,4.3-4.3,8.2-7.5,11.6c-0.1,0.1-0.2,0.2-0.3,0.3c-6.6-2.8-11.9-7.2-15.6-13.5
		C19,59,17.5,53.9,17.2,48.4z"/>
	<path id="XMLID_55_" class="st1" d="M52.3,13.4C52.1,9.5,52,5.6,51.9,1.6c19.7-1.3,39.8,14.8,40.3,37.1c-3.8,0.1-7.7,0.2-11.5,0.4
		c-1.2-5.8-3.8-10.9-7.7-15.2C67.3,17.8,60.4,14.3,52.3,13.4z"/>
	<path id="XMLID_54_" class="st2" d="M18.4,37.5c-9-4.9-15-12.2-18.3-22.2c1.2-0.4,2.3-0.8,3.5-1.1c11-3.5,22-7.1,33.1-10.6
		c0.6-0.2,0.8-0.1,1,0.5c1,3.5,2.1,7,3.2,10.5c-5,1.4-9.5,3.9-13.3,7.5c-2.7,2.6-5.1,5.5-6.7,8.9C19.8,33.1,19.2,35.4,18.4,37.5z"/>
	<path id="XMLID_53_" class="st3" d="M51.3,79.4c0.1-2.5,0.2-5.1,0.4-7.6c0.1-2.5,0.3-5,0.4-7.5c0.2-4.6,0.5-9.2,0.7-13.8
		c0.1-1.2,0.1-2.3,0.2-3.7c1.7,0.2,3.3,0.3,4.8,0.6c8,1.5,15,5.1,20.8,10.9c0.1,0.1,0.3,0.3,0.4,0.5C73.7,71.2,64.5,78,51.3,79.4z"
		/>
	<path id="XMLID_52_" class="st4" d="M51.3,79.4c13.2-1.3,22.4-8.2,27.8-20.6c2.6,2.6,4.7,5.5,6.4,8.7c2.3,4.2,3.7,8.7,4.3,13.4
		c0.3,2.2,0.2,4.3,0.3,6.7C77,86.9,64.1,86.2,51,85.4C51.1,83.4,51.2,81.4,51.3,79.4z"/>
	<path id="XMLID_51_" class="st5" d="M18.4,37.5c0.8-2.2,1.5-4.4,2.4-6.4c1.6-3.4,4-6.4,6.7-8.9c3.8-3.6,8.3-6.1,13.3-7.5
		c1,3.1,2,6.3,2.9,9.4c1.6,5.3,3.3,10.7,4.9,16.2c-1.6,0.4-3.1,0.8-4.6,1.1c-3.4,0.7-6.9,0.9-10.4,0.6
		C28.3,41.5,23.2,40.1,18.4,37.5z"/>
	<path id="XMLID_50_" class="st0" d="M52.3,13.4c8.2,0.8,15.1,4.3,20.6,10.5c3.9,4.3,6.5,9.4,7.7,15.2c-1.8,0.1-3.7,0.2-5.5,0.3
		c-5.5,0.2-11,0.4-16.5,0.5C57,40,55.4,40,53.9,40.1c-0.2,0-0.5,0-0.7,0c-0.1-1.7-0.1-3.3-0.2-4.9c-0.2-7-0.4-14-0.7-21
		C52.3,13.9,52.3,13.7,52.3,13.4z"/>
	<path id="XMLID_49_" class="st6" d="M17.2,48.4c0.3,5.5,1.9,10.6,4.7,15.2c3.7,6.2,9,10.7,15.6,13.5c-6.8,7.1-15,10.9-24.8,11.6
		c-0.6-13.3-1.2-26.6-1.7-40C13,48.6,15.1,48.5,17.2,48.4z"/>
	<text id="XMLID_47_" transform="matrix(1 0 0 1 93.125 87.5869)" class="st7 st8 st9">TM</text>
</g>
</svg>
