<svg id="Capa_1" enable-background="new 0 0 512 512" height="512" viewBox="0 0 512 512" width="512" xmlns="http://www.w3.org/2000/svg"><g><path d="m328.222 236.469c0 36.096-49.809 72.11-66.698 83.285-3.353 2.219-7.695 2.219-11.048 0-16.889-11.174-66.698-47.189-66.698-83.285 0-43.204 48.148-59.576 72.222-22.979 24.074-36.597 72.222-20.224 72.222 22.979z" fill="#eb8b7f"/><path d="m328.22 236.47c0 36.1-49.81 72.11-66.7 83.28-1.68 1.11-3.6 1.67-5.52 1.67v-107.93c24.07-36.6 72.22-20.22 72.22 22.98z" fill="#f47160"/><path d="m391.33 303.335c-29.72 2.16-53.9 22.13-62.87 48.71l-65.34 11.52c-16.24 2.86-27.08 18.35-24.22 34.58l.06.3c2.86 16.23 18.34 27.07 34.58 24.21l59.652-10.493c7.55-1.328 14.865 3.326 16.861 10.728 2.301 8.535-3.341 17.171-12.081 18.493l-76.064 11.506-123.239-63.828c-25.832-13.243-56.796-5.427-73.554 16.914-3.706 4.941-1.97 12.051 3.538 14.845l161.627 81.989c15.412 7.818 32.842 10.751 49.964 8.406l119.756-21.4h56.308v-159.353l-6.308-3.457c-14.34-15.95-35.63-25.34-58.67-23.67z" fill="#ffddce"/><path d="m456.31 330.46v159.36h-56.31l-119.76 21.39c-8.09 1.11-16.25 1.04-24.24-.17v-61.21l5.91 3.06 76.06-11.51c7.41-1.12 12.6-7.5 12.6-14.62 0-1.28-.17-2.57-.52-3.87-1.99-7.4-9.31-12.06-16.86-10.73l-59.65 10.5c-6.18 1.09-12.24.19-17.54-2.23v-54.66c2.22-1.01 4.61-1.76 7.12-2.2l65.34-11.52c8.97-26.58 33.15-46.55 62.87-48.71 23.04-1.67 44.33 7.72 58.67 23.67z" fill="#ffccbd"/><path d="m502 327.005h-52v174.995c0 5.523 4.477 10 10 10h42c5.523 0 10-4.477 10-10v-164.995c0-5.523-4.477-10-10-10z" fill="#495959"/><path d="m120.67 208.665c29.72-2.16 53.9-22.13 62.87-48.71l65.34-11.52c16.24-2.86 27.08-18.35 24.22-34.58l-.06-.3c-2.86-16.23-18.34-27.07-34.58-24.21l-59.652 10.493c-7.55 1.328-14.865-3.326-16.86-10.728-2.301-8.535 3.341-17.171 12.081-18.493l76.064-11.506 123.239 63.828c25.832 13.243 56.796 5.427 73.554-16.914 3.706-4.941 1.97-12.051-3.538-14.845l-161.627-81.988c-15.412-7.818-32.842-10.751-49.964-8.406l-119.757 21.399h-50l-6.308 4v155.354l6.308 3.456c14.34 15.95 35.63 25.34 58.67 23.67z" fill="#ffddce"/><path d="m273.1 113.85c2.42 13.72-4.95 26.91-17.1 32.38v-54.66c8.65 3.93 15.27 11.92 17.04 21.98z" fill="#ffccbd"/><path d="m443.344 91.182c5.508 2.794 7.243 9.903 3.538 14.844-16.755 22.342-47.722 30.159-73.552 16.914l-117.33-60.77v-61.21c8.91 1.34 17.6 4.1 25.72 8.23z" fill="#ffccbd"/><path d="m10 22.185h52v176.553c0 5.523-4.477 10-10 10h-42c-5.523 0-10-4.477-10-10v-166.553c0-5.523 4.477-10 10-10z" fill="#55696e"/></g></svg>