<?xml version="1.0" encoding="utf-8"?>
<svg viewBox="0 0 512 640" style="enable-background:new 0 0 512 512;" xmlns="http://www.w3.org/2000/svg">
  <g>
    <g>
      <g>
        <path d="M316.001,384.456h-33.963c-1.793,0-3.245-1.453-3.245-3.245s1.452-3.245,3.245-3.245h33.963     c1.792,0,3.245,1.453,3.245,3.245S317.793,384.456,316.001,384.456z"/>
      </g>
      <g>
        <path d="M316.001,405.745h-33.963c-1.793,0-3.245-1.453-3.245-3.245s1.452-3.245,3.245-3.245h33.963     c1.792,0,3.245,1.453,3.245,3.245S317.793,405.745,316.001,405.745z"/>
      </g>
      <g>
        <path d="M 255.037 453.791 C 205.587 453.792 155.762 448.053 106.944 436.732 C 105.473 436.391 104.432 435.081 104.432 433.57 C 104.432 421.257 104.293 410.654 104.171 401.298 C 103.327 336.738 103.804 335.871 155.221 308.452 C 165.689 302.87 178.718 295.923 194.302 287.006 C 195.059 286.574 195.958 286.463 196.796 286.7 C 197.397 286.87 197.932 287.209 198.341 287.669 C 199.473 285.483 201.09 283.459 202.57 282.092 C 204.433 280.37 206.531 279.372 208.935 278.91 C 211.567 278.403 215.214 278.605 217.846 279.546 C 220.391 280.456 221.795 281.131 224.529 284.32 C 229.773 290.434 242.065 315.571 245.852 320.283 C 247.277 322.055 247.706 321.252 248.717 322.51 C 250.171 324.32 252.638 328.382 253.614 331.392 L 253.728 331.278 C 254.834 330.178 256.542 330.035 257.803 330.867 C 258.998 328.428 261.128 326.219 262.402 324.738 C 263.627 323.314 264.162 323.742 265.903 321.874 C 269.72 317.778 283.024 302.363 285.634 296.414 C 287.104 293.063 285.4 291.135 286.271 288.775 C 287.166 286.35 289.116 283.752 291.045 282.092 C 292.866 280.525 295.006 279.372 297.41 278.91 C 300.042 278.403 303.563 278.496 306.321 279.546 C 309.205 280.645 312.392 283.356 314.277 285.593 C 314.598 285.973 314.892 286.347 315.162 286.722 C 315.992 286.466 316.921 286.541 317.731 287.005 C 332.9 295.684 345.682 302.526 355.954 308.026 C 407.115 335.417 408.613 336.815 407.89 398.225 C 408.07 403.755 408.097 408.755 407.844 412.258 C 407.802 412.841 407.756 413.402 407.706 413.943 C 407.646 419.979 407.601 426.495 407.601 433.569 C 407.601 435.086 406.55 436.4 405.07 436.735 C 398.302 438.264 391.527 439.691 384.749 441.016 C 383.307 441.528 381.768 442.001 380.156 442.492 C 374.533 444.207 367.645 445.456 359.788 446.311 C 355.136 446.818 348.78 447.524 342.677 447.921 C 313.299 451.823 283.991 453.79 255.037 453.791 Z M 256.091 338.084 L 255.89 338.285 C 256.13 338.379 256.372 338.475 256.615 338.573 Z M 368.682 354.486 C 367.052 353.287 365.088 352.383 362.423 350.801 C 364.13 351.957 366.353 353.19 368.682 354.486 Z" style="fill: rgb(132, 197, 73); paint-order: fill;"/>
      </g>
      <g>
        <path d="M 257.319 269.551 C 206.92 269.551 180.556 198.019 180.556 159.674 C 180.556 117.382 214.992 82.975 257.319 82.975 C 299.646 82.975 334.083 117.382 334.083 159.674 C 334.083 198.019 307.719 269.551 257.319 269.551 Z" style="fill: rgb(132, 197, 73);"/>
      </g>
      <g>
        <path d="M277.44,356.798c-0.816,0-1.608-0.308-2.214-0.871l-21.424-19.974c-1.203-1.121-1.376-2.965-0.405-4.291l43.299-59.133     c0.546-0.743,1.381-1.221,2.299-1.312c0.914-0.095,1.83,0.212,2.511,0.835l16.803,15.376c1.143,1.046,1.388,2.754,0.584,4.078     l-38.678,63.729c-0.507,0.835-1.363,1.396-2.33,1.531C277.736,356.788,277.588,356.798,277.44,356.798z M260.337,333.171     l16.398,15.288l35.226-58.041l-12.166-11.133L260.337,333.171z" style="fill: rgb(132, 197, 73); paint-order: fill;"/>
      </g>
      <g>
        <path d="M232.6,360.146c-0.154,0-0.31-0.011-0.464-0.033c-1.011-0.146-1.894-0.759-2.384-1.655l-36.688-67.077     c-0.717-1.311-0.446-2.941,0.657-3.951l16.803-15.376c0.681-0.622,1.591-0.923,2.511-0.835c0.918,0.091,1.753,0.568,2.298,1.312     l43.301,59.133c0.947,1.293,0.807,3.084-0.329,4.217L234.89,359.2C234.277,359.81,233.452,360.146,232.6,360.146z      M199.981,290.499l33.392,61.051l18.378-18.303l-39.515-53.963L199.981,290.499z" style="fill: rgb(132, 197, 73);"/>
      </g>
      <g>
        <path d="M354.158,189.201H327.66c-0.986,0-1.92-0.449-2.535-1.219c-0.616-0.771-0.848-1.779-0.631-2.741     c2.027-8.984,3.099-17.825,3.099-25.568c0-3.248-0.224-6.526-0.685-10.022c-0.122-0.927,0.162-1.861,0.778-2.563     c0.615-0.703,1.505-1.105,2.439-1.105h24.032c1.792,0,3.245,1.453,3.245,3.245v36.729     C357.403,187.748,355.95,189.201,354.158,189.201z M331.662,182.71h19.251v-30.238h-17.16c0.222,2.451,0.33,4.831,0.33,7.201     C334.083,166.739,333.25,174.632,331.662,182.71z" style="fill: rgb(88, 88, 90);"/>
      </g>
      <g>
        <path d="M187.428,189.201h-26.522c-1.792,0-3.245-1.453-3.245-3.246v-36.729c0-1.792,1.453-3.245,3.245-3.245h24.08     c0.946,0,1.845,0.413,2.461,1.13c0.617,0.718,0.89,1.668,0.747,2.604c-0.495,3.245-0.746,6.595-0.746,9.957     c0,7.5,1.088,16.345,3.146,25.576c0.215,0.961-0.019,1.968-0.635,2.736C189.345,188.754,188.413,189.201,187.428,189.201z      M164.151,182.71h19.28c-1.623-8.263-2.473-16.158-2.473-23.037c0-2.414,0.118-4.824,0.352-7.201h-17.159V182.71z" style="fill: rgb(88, 88, 90);"/>
      </g>
      <g>
        <path d="M172.31,152.473c-0.112,0-0.226-0.006-0.34-0.018c-1.783-0.186-3.078-1.781-2.892-3.563     c5.382-51.698,43.317-90.683,88.241-90.683c44.989,0,82.955,38.986,88.311,90.685c0.186,1.783-1.11,3.378-2.893,3.563     c-1.797,0.189-3.378-1.111-3.563-2.894c-5.013-48.38-40.203-84.863-81.855-84.863c-41.589,0-76.75,36.484-81.786,84.865     C175.359,151.232,173.951,152.473,172.31,152.473z" style="fill: rgb(88, 88, 90);"/>
      </g>
      <g>
        <path d="M265.805,239.589c-1.309,0-2.54-0.796-3.033-2.091c-0.638-1.675,0.202-3.55,1.878-4.188l73.276-27.911v-19.444     c0-1.792,1.453-3.245,3.245-3.245s3.245,1.453,3.245,3.245v21.681c0,1.347-0.832,2.554-2.09,3.033l-75.367,28.707     C266.579,239.521,266.188,239.589,265.805,239.589z" style="fill: rgb(88, 88, 90);"/>
      </g>
    </g>
  </g>
</svg>