<svg xmlns="http://www.w3.org/2000/svg" data-name="Layer 1" viewBox="0 0 100 125" x="0px" y="0px"><title>30</title><path d="M28.21289,8.4256a9.44824,9.44824,0,1,1-9.44824,9.44824A9.44829,9.44829,0,0,1,28.21289,8.4256ZM7.76636,57.00006h7.97729l-3.16211-6.55194,3.21009-6.64789,1.06579-2.20642V57.00006h22.7107V40.21631a3.1799,3.1799,0,0,1,.22753.242l.83838,1.138,5.36621,7.2826a3.59271,3.59271,0,0,0,5.3302.51513L63.04492,38.63763a3.59436,3.59436,0,1,0-4.863-5.29419l-8.76794,8.0492-3.83289-5.19843a10.495,10.495,0,0,0-8.40869-4.25207H20.09167A10.48332,10.48332,0,0,0,10.689,37.85919L5.35876,48.89093a3.57976,3.57976,0,0,0,0,3.1264ZM4.99963,93.36169c0,2.18445,27.197,2.18445,27.197,0,0-6.23211-6.088-11.28509-13.599-11.28509S4.99963,87.12958,4.99963,93.36169ZM93.99976,4.99994H50.36108v4H90.99976v42H68.74414v4H93.99976a1,1,0,0,0,1-1v-48A1,1,0,0,0,93.99976,4.99994ZM24.93555,73.617a6.33741,6.33741,0,1,0-6.33741,6.33747A6.33748,6.33748,0,0,0,24.93555,73.617Zm42.8667,19.74469c0,2.18445,27.197,2.18445,27.197,0,0-6.23217-6.087-11.28509-13.59815-11.28509S67.80225,87.12952,67.80225,93.36169ZM87.73816,73.617a6.33747,6.33747,0,1,0-6.33753,6.33747A6.33743,6.33743,0,0,0,87.73816,73.617ZM63.5979,93.36169C63.5979,87.12952,57.511,82.0766,50,82.0766S36.40088,87.12952,36.40088,93.36169C36.40088,95.54614,63.5979,95.54614,63.5979,93.36169ZM43.662,73.617a6.33746,6.33746,0,1,0,6.33752-6.33746A6.33743,6.33743,0,0,0,43.662,73.617Z"/><text x="0" y="115" fill="#000000" font-size="5px" font-weight="bold" font-family="'Helvetica Neue', Helvetica, Arial-Unicode, Arial, Sans-serif">Created by MRK</text><text x="0" y="120" fill="#000000" font-size="5px" font-weight="bold" font-family="'Helvetica Neue', Helvetica, Arial-Unicode, Arial, Sans-serif">from the Noun Project</text></svg>