<svg id="Layer_1" enable-background="new 0 0 512.002 512.002" height="512" viewBox="0 0 512.002 512.002" width="512" xmlns="http://www.w3.org/2000/svg"><g><g clip-rule="evenodd" fill-rule="evenodd"><path d="m110.404 148.546c7.809 7.81 20.472 7.81 28.281 0l48.812-48.812c7.809-7.81 7.809-20.472 0-28.281s-20.472-7.809-28.281 0l-34.671 34.671-11.761-11.761c-7.81-7.809-20.472-7.809-28.281 0s-7.809 20.472 0 28.281z" fill="#fff"/><path d="m84.502 94.363c7.81-7.809 20.472-7.809 28.281 0l11.761 11.761 34.671-34.671c7.81-7.809 20.472-7.809 28.281 0 7.809 7.81 7.809 20.472 0 28.281l-48.812 48.812c-7.81 7.81-20.472 7.81-28.281 0l-25.902-25.902c-7.808-7.809-7.808-20.472.001-28.281zm151.498 15.637c0-55.228-44.771-100-100-100s-100 44.771-100 100 44.771 100 100 100 100-44.772 100-100z" fill="#cbe558"/><path d="m136 302.002c-55.229 0-100 44.771-100 100s44.771 100 100 100 100-44.771 100-100-44.771-100-100-100zm-42.426 57.574c7.778-7.778 20.506-7.778 28.284 0l14.142 14.142 14.142-14.142c7.778-7.778 20.506-7.778 28.284 0s7.778 20.506 0 28.284l-14.142 14.142 14.142 14.142c7.778 7.778 7.778 20.506 0 28.284s-20.506 7.778-28.284 0l-14.142-14.142-14.142 14.142c-7.778 7.778-20.506 7.778-28.284 0s-7.778-20.506 0-28.284l14.142-14.142-14.142-14.142c-7.778-7.778-7.779-20.506 0-28.284z" fill="#ff5d7d"/><path d="m121.858 359.576c-7.778-7.778-20.506-7.778-28.284 0s-7.778 20.506 0 28.284l14.142 14.142-14.142 14.142c-7.778 7.778-7.778 20.506 0 28.284s20.506 7.778 28.284 0l14.142-14.142 14.142 14.142c7.778 7.778 20.506 7.778 28.284 0s7.778-20.506 0-28.284l-14.142-14.142 14.142-14.142c7.778-7.778 7.778-20.506 0-28.284s-20.506-7.778-28.284 0l-14.142 14.142z" fill="#fff"/><path d="m366.002 181.999c18.929 0 34.897-13.326 38.986-31.059.663-2.877 1.014-5.87 1.014-8.941v-20c0-22-18-40-40-40s-40 18-40 40v20c0 3.071.351 6.063 1.014 8.94 4.088 17.734 20.056 31.06 38.986 31.06z" fill="#ffdcd5"/><path d="m404.987 150.94c-4.089 17.733-20.056 31.059-38.986 31.059-18.929 0-34.897-13.326-38.985-31.06-30.118 14.594-51.015 45.506-51.015 81.062l40-.003v70.002h100v-70.002l40 .003c.001-35.556-20.896-66.467-51.014-81.061z" fill="#a7bdcd"/><path d="m316.001 302v-70.002l-40 .003v70c0 11 9 20 20 20h20z" fill="#ffdcd5"/><path d="m416.001 231.998v70.002 20.001h20c11 0 20-9 20-20v-70z" fill="#ffdcd5"/><path d="m416.001 302h-100v20.001 160h100v-160z" fill="#6d91ac"/></g><g><path d="m136 220c12.255 0 24.302-2.008 35.808-5.968 5.222-1.797 7.999-7.488 6.201-12.71-1.797-5.222-7.487-7.999-12.71-6.201-9.406 3.237-19.264 4.879-29.299 4.879-49.626 0-90-40.374-90-90s40.374-90 90-90 90 40.374 90 90c0 10.032-1.641 19.887-4.877 29.293-1.797 5.222.98 10.913 6.203 12.709 5.223 1.794 10.913-.98 12.709-6.203 3.958-11.503 5.965-23.548 5.965-35.799 0-60.654-49.346-110-110-110s-110 49.346-110 110 49.346 110 110 110z"/><path d="m136 292.002c-60.654 0-110 49.346-110 110s49.346 110 110 110 110-49.346 110-110-49.345-110-110-110zm0 200c-49.626 0-90-40.374-90-90s40.374-90 90-90 90 40.374 90 90-40.374 90-90 90z"/><path d="m415.871 145.418c.077-1.131.13-2.268.13-3.419v-20c0-27.57-22.43-50-50-50-27.569 0-49.999 22.43-49.999 50v20c0 1.149.053 2.286.13 3.416-14.035 8.127-25.947 19.548-34.674 33.328-10.111 15.966-15.456 34.382-15.456 53.258v70c0 16.542 13.457 30 29.999 30h10v140h-10c-5.522 0-10 4.477-10 10s4.478 10 10 10h140.001c5.522 0 10-4.477 10-10s-4.478-10-10-10h-10.001v-140h10c16.543 0 30.001-13.458 30.001-30v-70c0-18.825-5.318-37.199-15.38-53.137-8.732-13.83-20.674-25.294-34.751-33.446zm-79.869-23.419c0-16.542 13.457-30 29.999-30h.001c16.541 0 29.999 13.458 29.999 30v20c0 16.542-13.458 30-30 30s-29.999-13.458-29.999-30zm-30.001 190.002h-10c-5.514 0-9.999-4.486-9.999-10v-60.001l19.999-.001zm100 160h-30v-125.53c0-5.523-4.478-10-10-10s-10 4.477-10 10v125.53h-30v-160.001h.001 79.999zm10.001-250.003c-.001 0-.001 0 0 0-2.653 0-5.196 1.054-7.072 2.929-1.875 1.875-2.929 4.419-2.929 7.071v60.002h-79.999-.001v-60.003c0-2.652-1.054-5.196-2.929-7.071-1.876-1.875-4.42-2.929-7.072-2.929l-29.379.003c2.88-23.113 15.666-43.673 35.205-56.615 8.406 15.816 25.05 26.614 44.176 26.614 19.123 0 35.765-10.796 44.173-26.61 19.534 12.945 32.324 33.513 35.207 56.611zm30 80.003c0 5.514-4.486 10-10.001 10h-10v-70.002l20.001.001z"/><path d="m456.002 0c-16.542 0-30 13.458-30 30 0 5.523 4.478 10 10 10s10-4.477 10-10c0-5.514 4.486-10 10-10s10 4.486 10 10c0 2.67-1.07 5.211-3.014 7.155-9.624 9.624-16.986 17.887-16.986 29.22 0 5.523 4.478 10 10 10s10-4.477 10-10c0-2.879 3.017-6.965 11.129-15.078 5.721-5.721 8.871-13.285 8.871-21.297 0-16.542-13.458-30-30-30z"/><path d="m456.002 86.368c-5.522 0-10 4.477-10 10v.007c0 5.523 4.478 9.997 10 9.997s10-4.481 10-10.004-4.478-10-10-10z"/><path d="m194.569 64.382c-5.666-5.666-13.199-8.786-21.212-8.786s-15.546 3.121-21.212 8.786l-27.6 27.6-4.69-4.69c-11.697-11.696-30.728-11.695-42.423 0-11.696 11.696-11.696 30.728 0 42.424l25.901 25.901c5.666 5.666 13.199 8.787 21.212 8.787s15.546-3.121 21.212-8.786l48.812-48.812c11.695-11.697 11.695-30.728 0-42.424zm-14.143 28.281-48.812 48.812c-1.888 1.889-4.399 2.928-7.069 2.928-2.671 0-5.181-1.04-7.07-2.928l-25.901-25.901c-3.898-3.898-3.898-10.241 0-14.139 3.897-3.898 10.241-3.899 14.139 0l11.761 11.761c3.905 3.905 10.237 3.905 14.143 0l34.671-34.671c1.888-1.889 4.399-2.928 7.069-2.928s5.181 1.04 7.069 2.928c3.898 3.897 3.898 10.24 0 14.138z"/><path d="m185.498 352.504c-11.697-11.696-30.729-11.696-42.427 0l-7.071 7.072-7.071-7.071c-11.697-11.696-30.73-11.695-42.427 0-11.697 11.697-11.697 30.729 0 42.427l7.071 7.071-7.071 7.071c-5.65 5.651-8.762 13.184-8.762 21.213s3.112 15.563 8.762 21.213c5.651 5.65 13.185 8.763 21.214 8.763s15.563-3.112 21.213-8.763l7.071-7.071 7.071 7.07c5.65 5.651 13.184 8.763 21.213 8.763s15.563-3.112 21.213-8.763c5.651-5.65 8.763-13.184 8.763-21.213s-3.112-15.563-8.762-21.213l-7.071-7.071 7.071-7.071c11.697-11.697 11.697-30.729 0-42.427zm-28.285 56.569 14.142 14.142c1.873 1.873 2.905 4.384 2.905 7.071s-1.031 5.198-2.905 7.071c-1.873 1.874-4.384 2.905-7.071 2.905s-5.198-1.031-7.071-2.905l-14.142-14.142c-1.953-1.953-4.512-2.929-7.071-2.929s-5.118.976-7.071 2.929l-14.143 14.142c-1.873 1.873-4.384 2.904-7.071 2.904s-5.198-1.031-7.072-2.905c-1.873-1.873-2.904-4.384-2.904-7.071s1.032-5.198 2.905-7.071l14.142-14.142c3.905-3.905 3.905-10.237 0-14.143l-14.142-14.142c-1.873-1.873-2.905-4.384-2.905-7.071s1.031-5.198 2.905-7.071c1.873-1.874 4.384-2.905 7.071-2.905s5.198 1.032 7.071 2.905l14.142 14.142c3.905 3.905 10.237 3.905 14.143 0l14.142-14.142c3.898-3.899 10.243-3.899 14.142 0s3.899 10.243 0 14.142l-14.142 14.142c-3.905 3.907-3.905 10.239 0 14.144z"/><path d="m206.709 190.707c2.721 0 5.432-1.104 7.406-3.275 3.715-4.086 3.414-10.411-.673-14.126-4.086-3.714-10.411-3.414-14.126.673l-.005.005c-3.715 4.086-3.411 10.408.675 14.123 1.916 1.741 4.323 2.6 6.723 2.6z"/></g></g></svg>